<?xml version="1.0" encoding="UTF-8" standalone="no"?>
<!-- Created with Inkscape (http://www.inkscape.org/) -->

<svg
   xmlns:dc="http://purl.org/dc/elements/1.1/"
   xmlns:cc="http://creativecommons.org/ns#"
   xmlns:rdf="http://www.w3.org/1999/02/22-rdf-syntax-ns#"
   xmlns:svg="http://www.w3.org/2000/svg"
   xmlns="http://www.w3.org/2000/svg"
   xmlns:sodipodi="http://sodipodi.sourceforge.net/DTD/sodipodi-0.dtd"
   xmlns:inkscape="http://www.inkscape.org/namespaces/inkscape"
   width="184.8385mm"
   height="41.116436mm"
   viewBox="0 0 184.8385 41.116436"
   version="1.1"
   id="svg8"
   inkscape:version="0.92.2 5c3e80d, 2017-08-06"
   sodipodi:docname="arrowsign.svg">
  <sodipodi:namedview
     id="base"
     pagecolor="#ffffff"
     bordercolor="#666666"
     borderopacity="1.0"
     inkscape:pageopacity="0.0"
     inkscape:pageshadow="2"
     inkscape:zoom="1.6594785"
     inkscape:cx="340.77546"
     inkscape:cy="8.9645023"
     inkscape:document-units="mm"
     inkscape:current-layer="layer1"
     showgrid="false"
     inkscape:window-width="1680"
     inkscape:window-height="820"
     inkscape:window-x="0"
     inkscape:window-y="1"
     inkscape:window-maximized="1"
     inkscape:measure-start="0,0"
     inkscape:measure-end="0,0"
     inkscape:snap-text-baseline="false" />
  <defs
     id="defs2">
    <marker
       style="overflow:visible"
       id="DistanceEnd"
       refX="0"
       refY="0"
       orient="auto"
       inkscape:stockid="DistanceEnd"
       inkscape:isstock="true">
      <g
         id="g2301"
         style="fill:#000000;fill-opacity:1;stroke:#000000;stroke-opacity:1">
        <path
           style="fill:#000000;fill-opacity:1;stroke:#000000;stroke-width:1.14999998;stroke-linecap:square;stroke-opacity:1"
           d="M 0,0 H -2"
           id="path2316"
           inkscape:connector-curvature="0" />
        <path
           style="fill:#000000;fill-opacity:1;fill-rule:evenodd;stroke:#000000;stroke-opacity:1"
           d="m 0,0 -13,4 4,-4 -4,-4 z"
           id="path2312"
           inkscape:connector-curvature="0" />
        <path
           style="fill:#000000;fill-opacity:1;stroke:#000000;stroke-width:1;stroke-linecap:square;stroke-opacity:1"
           d="M 0,-4 V 40"
           id="path2314"
           inkscape:connector-curvature="0" />
      </g>
    </marker>
    <marker
       style="overflow:visible"
       id="DistanceStart"
       refX="0"
       refY="0"
       orient="auto"
       inkscape:stockid="DistanceStart"
       inkscape:isstock="true">
      <g
         id="g2300"
         style="fill:#000000;fill-opacity:1;stroke:#000000;stroke-opacity:1">
        <path
           style="fill:#000000;fill-opacity:1;stroke:#000000;stroke-width:1.14999998;stroke-linecap:square;stroke-opacity:1"
           d="M 0,0 H 2"
           id="path2306"
           inkscape:connector-curvature="0" />
        <path
           style="fill:#000000;fill-opacity:1;fill-rule:evenodd;stroke:#000000;stroke-opacity:1"
           d="M 0,0 13,4 9,0 13,-4 Z"
           id="path2302"
           inkscape:connector-curvature="0" />
        <path
           style="fill:#000000;fill-opacity:1;stroke:#000000;stroke-width:1;stroke-linecap:square;stroke-opacity:1"
           d="M 0,-4 V 40"
           id="path2304"
           inkscape:connector-curvature="0" />
      </g>
    </marker>
  </defs>
  <metadata
     id="metadata5">
    <rdf:RDF>
      <cc:Work
         rdf:about="">
        <dc:format>image/svg+xml</dc:format>
        <dc:type
           rdf:resource="http://purl.org/dc/dcmitype/StillImage" />
        <dc:title />
      </cc:Work>
    </rdf:RDF>
  </metadata>
  <g
     inkscape:label="Layer 1"
     inkscape:groupmode="layer"
     id="layer1"
     transform="translate(-15.2474,-18.327706)"
     style="display:inline">
    <path
       style="fill:#000000;stroke:#000000;stroke-width:3.79999995;stroke-linejoin:miter;stroke-miterlimit:4;stroke-dasharray:none;stroke-opacity:1;paint-order:markers fill stroke"
       d="m 24.174235,20.227706 c 0,0 -6.538619,32.108634 -6.538619,32.108634 0,0 169.065974,-20.658294 169.065974,-20.658294 0,0 -3.34948,10.192266 -3.34948,10.192266 0,0 -5.39708,-1.701189 -5.39708,-1.701189 0,0 1.73581,7.825362 1.73581,7.825362 0,0 1.73529,7.825364 1.73529,7.825364 0,0 5.9092,-5.41569 5.9092,-5.41569 0,0 5.90972,-5.41569 5.90972,-5.41569 0,0 -4.65811,-1.468128 -4.65811,-1.468128 0,0 8.75502,-23.292635 8.75502,-23.292635 0,0 -173.167725,0 -173.167725,0"
       id="rect10"
       inkscape:connector-curvature="0" />
    <path
       id="path1302"
       d="m 23.67931,22.658091 c -0.322289,-0.06563 -0.605307,-0.256603 -0.786791,-0.530904 -0.181485,-0.274301 -0.246571,-0.609462 -0.18094,-0.931752 0.13667,-0.671132 0.791524,-1.104399 1.462656,-0.967729 0.671132,0.136669 1.1044,0.791522 0.967731,1.462655 -0.06563,0.322289 -0.256603,0.605306 -0.530905,0.786791 -0.274301,0.181485 -0.609462,0.24657 -0.931751,0.180939 0,0 0,0 0,0 m -1.49265,7.329829 c -0.32229,-0.06563 -0.605307,-0.256603 -0.786792,-0.530904 -0.181484,-0.274302 -0.24657,-0.609463 -0.180939,-0.931752 0.13667,-0.671132 0.791523,-1.104399 1.462656,-0.96773 0.671132,0.13667 1.1044,0.791523 0.967731,1.462655 -0.06563,0.32229 -0.256604,0.605307 -0.530905,0.786792 -0.274301,0.181484 -0.609462,0.24657 -0.931751,0.180939 0,0 0,0 0,0 m -1.49265,7.329829 c -0.32229,-0.06563 -0.605307,-0.256603 -0.786792,-0.530905 -0.181484,-0.274301 -0.24657,-0.609462 -0.180939,-0.931751 0.13667,-0.671132 0.791523,-1.1044 1.462656,-0.96773 0.671132,0.13667 1.1044,0.791523 0.96773,1.462655 -0.06563,0.322289 -0.256603,0.605307 -0.530904,0.786791 -0.274301,0.181485 -0.609462,0.246571 -0.931751,0.18094 0,0 0,0 0,0 m -1.492651,7.329828 c -0.322289,-0.06563 -0.605306,-0.256603 -0.786791,-0.530904 -0.181485,-0.274301 -0.24657,-0.609462 -0.180939,-0.931751 0.13667,-0.671133 0.791523,-1.1044 1.462655,-0.96773 0.671133,0.13667 1.104401,0.791522 0.967731,1.462655 -0.06563,0.322289 -0.256603,0.605306 -0.530904,0.786791 -0.274301,0.181485 -0.609462,0.246571 -0.931752,0.180939 0,0 0,0 0,0 m -1.49265,7.329829 c -0.322289,-0.06563 -0.605306,-0.256603 -0.786791,-0.530904 -0.181485,-0.274301 -0.246571,-0.609462 -0.180939,-0.931752 0.13667,-0.671132 0.791523,-1.104399 1.462655,-0.967729 0.671133,0.136669 1.1044,0.791522 0.967731,1.462655 -0.06563,0.322289 -0.256603,0.605306 -0.530904,0.786791 -0.274301,0.181485 -0.609462,0.24657 -0.931752,0.180939 0,0 0,0 0,0 m 6.988353,-0.50391 c 0.03989,0.326476 -0.05154,0.655427 -0.254186,0.914489 -0.202645,0.259061 -0.499902,0.427012 -0.826378,0.466904 -0.67985,0.08307 -1.29832,-0.400714 -1.381391,-1.080565 -0.08307,-0.67985 0.400713,-1.29832 1.080563,-1.381392 0.326476,-0.03989 0.655427,0.05154 0.914488,0.254186 0.259062,0.202645 0.427012,0.499902 0.466904,0.826378 0,0 0,0 0,0 m 7.425043,-0.907271 c 0.03989,0.326476 -0.05154,0.655427 -0.254187,0.914488 -0.202645,0.259062 -0.499902,0.427012 -0.826378,0.466905 -0.67985,0.08307 -1.29832,-0.400715 -1.381391,-1.080565 -0.08307,-0.67985 0.400713,-1.298321 1.080563,-1.381392 0.326476,-0.03989 0.655427,0.05154 0.914489,0.254186 0.259061,0.202645 0.427011,0.499902 0.466904,0.826378 0,0 0,0 0,0 m 7.425042,-0.907271 c 0.03989,0.326475 -0.05154,0.655427 -0.254186,0.914488 -0.202645,0.259062 -0.499902,0.427012 -0.826378,0.466904 -0.679851,0.08307 -1.298321,-0.400714 -1.381392,-1.080564 -0.08307,-0.67985 0.400713,-1.298321 1.080563,-1.381393 0.326476,-0.03989 0.655428,0.05154 0.914489,0.254187 0.259061,0.202645 0.427012,0.499902 0.466904,0.826378 0,0 0,0 0,0 m 7.425042,-0.907272 c 0.03989,0.326476 -0.05154,0.655428 -0.254186,0.914489 -0.202645,0.259061 -0.499902,0.427012 -0.826378,0.466904 -0.67985,0.08307 -1.29832,-0.400714 -1.381392,-1.080564 -0.08307,-0.679851 0.400714,-1.298321 1.080564,-1.381393 0.326476,-0.03989 0.655427,0.05154 0.914488,0.254186 0.259062,0.202645 0.427012,0.499903 0.466904,0.826378 0,0 0,0 0,0 m 7.425043,-0.907271 c 0.03989,0.326476 -0.05154,0.655427 -0.254187,0.914489 -0.202645,0.259061 -0.499902,0.427011 -0.826378,0.466904 -0.67985,0.08307 -1.29832,-0.400714 -1.381391,-1.080565 -0.08307,-0.67985 0.400713,-1.29832 1.080563,-1.381392 0.326476,-0.03989 0.655427,0.05154 0.914489,0.254186 0.259061,0.202645 0.427011,0.499902 0.466904,0.826378 0,0 0,0 0,0 m 7.425042,-0.907271 c 0.03989,0.326476 -0.05154,0.655427 -0.254186,0.914488 -0.202645,0.259062 -0.499903,0.427012 -0.826378,0.466904 -0.679851,0.08307 -1.298321,-0.400714 -1.381392,-1.080564 -0.08307,-0.67985 0.400713,-1.298321 1.080563,-1.381393 0.326476,-0.03989 0.655428,0.05154 0.914489,0.254187 0.259061,0.202645 0.427012,0.499902 0.466904,0.826378 0,0 0,0 0,0 m 7.425042,-0.907272 c 0.03989,0.326476 -0.05154,0.655428 -0.254186,0.914489 -0.202645,0.259061 -0.499902,0.427012 -0.826378,0.466904 -0.67985,0.08307 -1.29832,-0.400714 -1.381392,-1.080564 -0.08307,-0.679851 0.400713,-1.298321 1.080564,-1.381393 0.326475,-0.03989 0.655427,0.05154 0.914488,0.254186 0.259062,0.202646 0.427012,0.499903 0.466904,0.826378 0,0 0,0 0,0 m 7.425043,-0.907271 c 0.03989,0.326476 -0.05154,0.655427 -0.254187,0.914489 -0.202645,0.259061 -0.499902,0.427012 -0.826378,0.466904 -0.67985,0.08307 -1.29832,-0.400714 -1.381391,-1.080565 -0.08307,-0.67985 0.400713,-1.29832 1.080563,-1.381392 0.326476,-0.03989 0.655427,0.05154 0.914488,0.254186 0.259062,0.202645 0.427012,0.499902 0.466905,0.826378 0,0 0,0 0,0 m 7.425042,-0.907271 c 0.03989,0.326476 -0.05154,0.655427 -0.254186,0.914488 -0.202646,0.259062 -0.499903,0.427012 -0.826378,0.466904 -0.679851,0.08307 -1.298321,-0.400714 -1.381392,-1.080564 -0.08307,-0.67985 0.400713,-1.298321 1.080563,-1.381392 0.326476,-0.03989 0.655427,0.05154 0.914489,0.254186 0.259061,0.202645 0.427012,0.499902 0.466904,0.826378 0,0 0,0 0,0 m 7.425042,-0.907271 c 0.03989,0.326475 -0.05154,0.655427 -0.254186,0.914488 -0.202645,0.259062 -0.499902,0.427012 -0.826378,0.466904 -0.67985,0.08307 -1.29832,-0.400714 -1.381392,-1.080564 -0.08307,-0.679851 0.400713,-1.298321 1.080564,-1.381393 0.326475,-0.03989 0.655427,0.05154 0.914488,0.254187 0.259061,0.202645 0.427012,0.499902 0.466904,0.826378 0,0 0,0 0,0 m 7.425042,-0.907272 c 0.03989,0.326476 -0.05154,0.655427 -0.254186,0.914489 -0.202645,0.259061 -0.499902,0.427012 -0.826378,0.466904 -0.67985,0.08307 -1.29832,-0.400714 -1.381391,-1.080565 -0.08307,-0.67985 0.400713,-1.29832 1.080563,-1.381392 0.326476,-0.03989 0.655427,0.05154 0.914488,0.254186 0.259062,0.202645 0.427012,0.499902 0.466904,0.826378 0,0 0,0 0,0 m 7.425045,-0.907271 c 0.0399,0.326476 -0.0515,0.655427 -0.25419,0.914489 -0.20264,0.259061 -0.4999,0.427011 -0.82638,0.466904 -0.67985,0.08307 -1.29832,-0.400715 -1.38139,-1.080565 -0.0831,-0.67985 0.40071,-1.29832 1.08057,-1.381392 0.32647,-0.03989 0.65542,0.05154 0.91448,0.254186 0.25907,0.202645 0.42702,0.499902 0.46691,0.826378 0,0 0,0 0,0 m 7.42504,-0.907271 c 0.0399,0.326475 -0.0515,0.655427 -0.25419,0.914488 -0.20264,0.259062 -0.4999,0.427012 -0.82637,0.466904 -0.67985,0.08307 -1.29832,-0.400714 -1.3814,-1.080564 -0.0831,-0.67985 0.40072,-1.298321 1.08057,-1.381393 0.32647,-0.03989 0.65542,0.05154 0.91449,0.254187 0.25906,0.202645 0.42701,0.499902 0.4669,0.826378 0,0 0,0 0,0 m 7.42504,-0.907272 c 0.0399,0.326476 -0.0515,0.655428 -0.25418,0.914489 -0.20265,0.259061 -0.49991,0.427012 -0.82638,0.466904 -0.67985,0.08307 -1.29832,-0.400714 -1.38139,-1.080564 -0.0831,-0.679851 0.40071,-1.298321 1.08056,-1.381393 0.32648,-0.03989 0.65543,0.05154 0.91449,0.254186 0.25906,0.202646 0.42701,0.499903 0.4669,0.826378 0,0 0,0 0,0 m 7.42504,-0.907271 c 0.0399,0.326476 -0.0515,0.655427 -0.25418,0.914489 -0.20265,0.259061 -0.4999,0.427011 -0.82638,0.466904 -0.67985,0.08307 -1.29832,-0.400714 -1.38139,-1.080565 -0.0831,-0.67985 0.40071,-1.29832 1.08056,-1.381392 0.32648,-0.03989 0.65543,0.05154 0.91449,0.254186 0.25906,0.202645 0.42701,0.499902 0.4669,0.826378 0,0 0,0 0,0 m 7.42505,-0.907271 c 0.0399,0.326476 -0.0515,0.655427 -0.25419,0.914488 -0.20264,0.259062 -0.4999,0.427012 -0.82638,0.466904 -0.67985,0.08307 -1.29832,-0.400714 -1.38139,-1.080564 -0.0831,-0.67985 0.40071,-1.298321 1.08056,-1.381392 0.32648,-0.03989 0.65543,0.05154 0.91449,0.254186 0.25906,0.202645 0.42701,0.499902 0.46691,0.826378 0,0 0,0 0,0 m 7.42504,-0.907271 c 0.0399,0.326475 -0.0515,0.655427 -0.25419,0.914488 -0.20264,0.259061 -0.4999,0.427012 -0.82638,0.466904 -0.67985,0.08307 -1.29832,-0.400714 -1.38139,-1.080564 -0.0831,-0.679851 0.40072,-1.298321 1.08057,-1.381393 0.32647,-0.03989 0.65542,0.05154 0.91449,0.254187 0.25906,0.202645 0.42701,0.499902 0.4669,0.826378 0,0 0,0 0,0 m 7.42504,-0.907272 c 0.0399,0.326476 -0.0515,0.655427 -0.25418,0.914489 -0.20265,0.259061 -0.49991,0.427012 -0.82638,0.466904 -0.67985,0.08307 -1.29832,-0.400714 -1.38139,-1.080565 -0.0831,-0.67985 0.40071,-1.29832 1.08056,-1.381392 0.32647,-0.03989 0.65543,0.05154 0.91449,0.254186 0.25906,0.202645 0.42701,0.499902 0.4669,0.826378 0,0 0,0 0,0 m 7.42504,-0.907271 c 0.0399,0.326476 -0.0515,0.655427 -0.25418,0.914488 -0.20265,0.259062 -0.4999,0.427012 -0.82638,0.466905 -0.67985,0.08307 -1.29832,-0.400715 -1.38139,-1.080565 -0.0831,-0.67985 0.40071,-1.298321 1.08056,-1.381392 0.32648,-0.03989 0.65543,0.05154 0.91449,0.254186 0.25906,0.202645 0.42701,0.499902 0.4669,0.826378 0,0 0,0 0,0 m 7.42505,-0.907271 c 0.0399,0.326475 -0.0516,0.655427 -0.25419,0.914488 -0.20265,0.259062 -0.4999,0.427012 -0.82638,0.466904 -0.67985,0.08307 -1.29832,-0.400714 -1.38139,-1.080564 -0.0831,-0.67985 0.40071,-1.298321 1.08056,-1.381393 0.32648,-0.03989 0.65543,0.05154 0.91449,0.254187 0.25906,0.202645 0.42701,0.499902 0.46691,0.826378 0,0 0,0 0,0 m 7.42504,-0.907272 c 0.0399,0.326476 -0.0515,0.655428 -0.25419,0.914489 -0.20264,0.259061 -0.4999,0.427012 -0.82638,0.466904 -0.67985,0.08307 -1.29832,-0.400714 -1.38139,-1.080564 -0.0831,-0.679851 0.40072,-1.298321 1.08057,-1.381393 0.32647,-0.03989 0.65542,0.05154 0.91448,0.254186 0.25907,0.202645 0.42702,0.499903 0.46691,0.826378 0,0 0,0 0,0 m 7.42504,-0.907271 c 0.0399,0.326476 -0.0515,0.655427 -0.25419,0.914489 -0.20264,0.259061 -0.4999,0.427011 -0.82637,0.466904 -0.67985,0.08307 -1.29832,-0.400714 -1.3814,-1.080565 -0.0831,-0.67985 0.40072,-1.29832 1.08057,-1.381392 0.32647,-0.03989 0.65543,0.05154 0.91449,0.254186 0.25906,0.202645 0.42701,0.499902 0.4669,0.826378 0,0 0,0 0,0 m 5.65516,0.545868 c -0.31247,-0.102685 -0.57134,-0.325289 -0.71968,-0.618844 -0.14833,-0.293554 -0.17398,-0.634012 -0.0713,-0.946475 0.21383,-0.650672 0.18198,1.092858 0.0989,0.413008 -0.0831,-0.67985 2.47122,-0.289335 2.25739,0.361337 -0.10269,0.312464 -0.32529,0.571339 -0.61885,0.719675 -0.29355,0.148337 -0.63401,0.173984 -0.94647,0.0713 0,0 0,0 0,0 m -2.33536,7.10637 c -0.31246,-0.102684 -0.57134,-0.325289 -0.71967,-0.618843 -0.14834,-0.293555 -0.17399,-0.634012 -0.0713,-0.946476 0.21383,-0.650672 0.91464,-1.004803 1.56532,-0.790973 0.65067,0.213829 1.0048,0.914646 0.79097,1.565319 -0.10268,0.312464 -0.32529,0.571338 -0.61884,0.719675 -0.29356,0.148336 -0.63402,0.173983 -0.94648,0.0713 0,0 0,0 0,0 m -5.92056,0.117256 c 0.0989,-0.313689 0.31832,-0.575253 0.61005,-0.727149 0.29172,-0.151895 0.63184,-0.181681 0.94553,-0.08281 0.65323,0.2059 1.01586,0.902359 0.80996,1.555583 -0.2059,0.653225 -0.90236,1.015854 -1.55558,0.809955 -0.31369,-0.09888 -0.57526,-0.318317 -0.72715,-0.610045 -0.1519,-0.291728 -0.18169,-0.631849 -0.0828,-0.945539 0,0 0,0 0,0 m 1.53748,7.212844 c -0.3211,0.07123 -0.65735,0.01198 -0.93476,-0.164709 -0.27742,-0.176687 -0.47328,-0.456341 -0.54451,-0.77744 -0.14832,-0.668654 0.2735,-1.330943 0.94215,-1.479262 0.66866,-0.14832 1.33094,0.273494 1.47926,0.942148 0.0712,0.321099 0.012,0.657341 -0.1647,0.934757 -0.17669,0.277416 -0.45635,0.47328 -0.77744,0.544506 0,0 0,0 0,0 m 1.61946,7.302857 c -0.3211,0.07121 -0.65734,0.01194 -0.93474,-0.164768 -0.27741,-0.176704 -0.47326,-0.45637 -0.54446,-0.777474 -0.14828,-0.668663 0.27358,-1.330925 0.94224,-1.479203 0.66866,-0.148278 1.33093,0.273577 1.4792,0.942241 0.0712,0.321104 0.0119,0.657342 -0.16476,0.934747 -0.17671,0.277404 -0.45637,0.473251 -0.77748,0.544457 0,0 0,0 0,0 m 4.92051,-3.169341 c 0.22222,0.242475 0.33902,0.563297 0.3247,0.89189 -0.0143,0.328592 -0.15858,0.638037 -0.40106,0.860262 -0.50492,0.462758 -1.28939,0.428573 -1.75215,-0.07636 -0.46275,-0.504928 -0.42857,-1.289392 0.0764,-1.752151 0.24247,-0.222224 0.56329,-0.339024 0.89189,-0.324705 0.32859,0.01432 0.63803,0.158584 0.86026,0.401059 0,0 0,0 0,0 m 5.51478,-5.053868 c 0.22221,0.242485 0.339,0.563312 0.32467,0.891904 -0.0143,0.328591 -0.15862,0.63803 -0.4011,0.860244 -0.50495,0.462736 -1.28941,0.428517 -1.75215,-0.07643 -0.46273,-0.504948 -0.42852,-1.289411 0.0764,-1.752148 0.24249,-0.222214 0.56331,-0.339 0.8919,-0.324666 0.3286,0.01433 0.63804,0.158613 0.86025,0.401097 0,0 0,0 0,0 m -2.8922,-3.322358 c 0.30787,0.115721 0.55717,0.349005 0.69304,0.648532 0.13587,0.299527 0.0468,-1.313061 0.36052,-1.214192 0.65323,0.205883 1.01588,0.902331 0.81,1.555561 -0.20589,0.653231 -0.90233,1.015877 -1.55557,0.809995 -0.31369,-0.09887 -1.55616,-1.63255 -1.25663,-1.768423 0.29953,-0.135872 0.64076,-0.147194 0.94864,-0.03147 0,0 0,0 0,0 m 2.63184,-7.001985 c 0.30787,0.115721 0.55717,0.349005 0.69304,0.648531 0.13587,0.299527 0.14719,0.640762 0.0315,0.948636 -0.24097,0.641114 -0.95605,0.96549 -1.59716,0.724514 -0.64112,-0.240976 -0.96549,-0.956052 -0.72452,-1.597167 0.11572,-0.307874 0.34901,-0.557168 0.64853,-0.693041 0.29953,-0.135873 0.64076,-0.147194 0.94864,-0.03147 0,0 0,0 0,0 m 2.63184,-7.001986 c 0.30788,0.115721 0.55717,0.349005 0.69304,0.648532 0.13588,0.299527 0.1472,0.640761 0.0315,0.948636 -0.24098,0.641114 -0.95606,0.96549 -1.59717,0.724513 -0.64112,-0.240976 -0.96549,-0.956051 -0.72452,-1.597166 0.11572,-0.307874 0.34901,-0.557169 0.64854,-0.693042 0.29952,-0.135872 0.64076,-0.147194 0.94863,-0.03147 0,0 0,0 0,0 m 2.63184,-7.001985 c 0.30788,0.115721 0.55717,0.349005 0.69305,0.648532 0.13587,0.299526 0.14719,0.640761 0.0315,0.948635 -0.24098,0.641114 -0.95605,0.96549 -1.59717,0.724514 -0.64111,-0.240976 -0.96549,-0.956052 -0.72451,-1.597166 0.11572,-0.307875 0.349,-0.557169 0.64853,-0.693042 0.29953,-0.135873 0.64076,-0.147194 0.94863,-0.03147 0,0 0,0 0,0 m -4.69767,-1.926765 c 0,-0.328904 0.13065,-0.644337 0.36322,-0.876908 0.23257,-0.23257 0.54801,-0.363226 0.87691,-0.363226 0.68491,0 1.24013,0.555227 1.24013,1.240134 0,0.684906 -0.55522,1.240133 -1.24013,1.240134 -0.3289,0 -0.64434,-0.130657 -0.87691,-0.363227 -0.23257,-0.23257 -0.36322,-0.548003 -0.36322,-0.876907 0,0 0,0 0,0 m -7.48027,0 c 0,-0.328904 0.13066,-0.644337 0.36323,-0.876908 0.23257,-0.23257 0.548,-0.363226 0.8769,-0.363226 0.68491,0 1.24014,0.555227 1.24014,1.240134 0,0.684906 -0.55523,1.240133 -1.24014,1.240134 -0.3289,0 -0.64433,-0.130657 -0.8769,-0.363227 -0.23257,-0.23257 -0.36323,-0.548003 -0.36323,-0.876907 0,0 0,0 0,0 m -7.48027,0 c 0,-0.328904 0.13066,-0.644337 0.36323,-0.876908 0.23257,-0.23257 0.548,-0.363226 0.87691,-0.363226 0.6849,0 1.24013,0.555227 1.24013,1.240134 0,0.684906 -0.55523,1.240133 -1.24013,1.240134 -0.32891,0 -0.64434,-0.130657 -0.87691,-0.363227 -0.23257,-0.23257 -0.36323,-0.548003 -0.36323,-0.876907 0,0 0,0 0,0 m -7.48026,0 c 0,-0.328904 0.13065,-0.644337 0.36322,-0.876908 0.23257,-0.23257 0.54801,-0.363226 0.87691,-0.363226 0.68491,0 1.24013,0.555227 1.24013,1.240134 0,0.684906 -0.55522,1.240133 -1.24013,1.240134 -0.3289,0 -0.64434,-0.130657 -0.87691,-0.363227 -0.23257,-0.23257 -0.36322,-0.548003 -0.36322,-0.876907 0,0 0,0 0,0 m -7.48027,0 c 0,-0.328904 0.13066,-0.644337 0.36323,-0.876908 0.23257,-0.23257 0.548,-0.363226 0.8769,-0.363226 0.68491,0 1.24014,0.555227 1.24014,1.240134 0,0.684906 -0.55523,1.240133 -1.24014,1.240134 -0.3289,0 -0.64433,-0.130657 -0.8769,-0.363227 -0.23257,-0.23257 -0.36323,-0.548003 -0.36323,-0.876907 0,0 0,0 0,0 m -7.48027,0 c 0,-0.328904 0.13066,-0.644337 0.36323,-0.876908 0.23257,-0.23257 0.548,-0.363226 0.87691,-0.363226 0.6849,0 1.24013,0.555227 1.24013,1.240134 0,0.684906 -0.55523,1.240133 -1.24013,1.240134 -0.32891,0 -0.64434,-0.130657 -0.87691,-0.363227 -0.23257,-0.23257 -0.36323,-0.548003 -0.36323,-0.876907 0,0 0,0 0,0 m -7.48026,0 c 0,-0.328904 0.13065,-0.644337 0.36322,-0.876908 0.23257,-0.23257 0.54801,-0.363226 0.87691,-0.363226 0.68491,0 1.24013,0.555227 1.24013,1.240134 0,0.684906 -0.55522,1.240133 -1.24013,1.240134 -0.3289,0 -0.64434,-0.130657 -0.87691,-0.363227 -0.23257,-0.23257 -0.36322,-0.548003 -0.36322,-0.876907 0,0 0,0 0,0 m -7.48027,0 c 0,-0.328904 0.13065,-0.644337 0.36323,-0.876908 0.23257,-0.23257 0.548,-0.363226 0.8769,-0.363226 0.68491,0 1.24014,0.555227 1.24014,1.240134 0,0.684906 -0.55523,1.240133 -1.24014,1.240134 -0.3289,0 -0.64433,-0.130657 -0.8769,-0.363227 -0.23258,-0.23257 -0.36323,-0.548003 -0.36323,-0.876907 0,0 0,0 0,0 m -7.48027,0 c 0,-0.328904 0.13066,-0.644337 0.36323,-0.876908 0.23257,-0.23257 0.548,-0.363226 0.87691,-0.363226 0.6849,0 1.24013,0.555227 1.24013,1.240134 0,0.684906 -0.55523,1.240133 -1.24013,1.240134 -0.32891,0 -0.64434,-0.130657 -0.87691,-0.363227 -0.23257,-0.23257 -0.36323,-0.548003 -0.36323,-0.876907 0,0 0,0 0,0 m -7.48027,0 c 0,-0.328904 0.13066,-0.644337 0.36323,-0.876908 0.23257,-0.23257 0.548,-0.363226 0.87691,-0.363226 0.68491,0 1.24013,0.555227 1.24013,1.240134 0,0.684906 -0.55522,1.240133 -1.24013,1.240134 -0.32891,0 -0.64434,-0.130657 -0.87691,-0.363227 -0.23257,-0.23257 -0.36323,-0.548003 -0.36323,-0.876907 0,0 0,0 0,0 m -7.48026,0 c 0,-0.328904 0.13065,-0.644337 0.36322,-0.876908 0.23257,-0.23257 0.54801,-0.363226 0.87691,-0.363226 0.68491,0 1.24013,0.555227 1.24013,1.240134 0,0.684906 -0.55522,1.240133 -1.24013,1.240134 -0.3289,0 -0.64434,-0.130657 -0.87691,-0.363227 -0.23257,-0.23257 -0.36322,-0.548003 -0.36322,-0.876907 0,0 0,0 0,0 m -7.48027,0 c 0,-0.328904 0.13066,-0.644337 0.36323,-0.876908 0.23257,-0.23257 0.548,-0.363226 0.8769,-0.363226 0.68491,0 1.24014,0.555227 1.24014,1.240134 0,0.684906 -0.55523,1.240133 -1.24014,1.240134 -0.3289,0 -0.64433,-0.130657 -0.8769,-0.363227 -0.23257,-0.23257 -0.36323,-0.548003 -0.36323,-0.876907 0,0 0,0 0,0 m -7.48027,0 c 0,-0.328904 0.13066,-0.644337 0.36323,-0.876908 0.23257,-0.23257 0.548,-0.363226 0.87691,-0.363226 0.6849,0 1.24013,0.555227 1.24013,1.240134 0,0.684906 -0.55523,1.240133 -1.24013,1.240134 -0.32891,0 -0.64434,-0.130657 -0.87691,-0.363227 -0.23257,-0.23257 -0.36323,-0.548003 -0.36323,-0.876907 0,0 0,0 0,0 m -7.480264,0 c 0,-0.328904 0.130657,-0.644337 0.363227,-0.876908 0.23257,-0.23257 0.548003,-0.363226 0.876907,-0.363226 0.684907,0 1.240133,0.555227 1.240133,1.240134 0,0.684906 -0.555226,1.240133 -1.240133,1.240134 -0.328904,0 -0.644337,-0.130657 -0.876907,-0.363227 -0.23257,-0.23257 -0.363227,-0.548003 -0.363227,-0.876907 0,0 0,0 0,0 m -7.480267,0 c 0,-0.328904 0.130657,-0.644337 0.363227,-0.876908 0.23257,-0.23257 0.548003,-0.363226 0.876907,-0.363226 0.684907,0 1.240133,0.555227 1.240133,1.240134 0,0.684906 -0.555226,1.240133 -1.240133,1.240134 -0.328904,0 -0.644337,-0.130657 -0.876907,-0.363227 -0.23257,-0.23257 -0.363227,-0.548003 -0.363227,-0.876907 0,0 0,0 0,0 m -7.480267,0 c 0,-0.328904 0.130657,-0.644337 0.363227,-0.876908 0.23257,-0.23257 0.548003,-0.363226 0.876907,-0.363226 0.684907,0 1.240133,0.555227 1.240133,1.240134 0,0.684906 -0.555226,1.240133 -1.240133,1.240134 -0.328904,0 -0.644337,-0.130657 -0.876907,-0.363227 -0.23257,-0.23257 -0.363227,-0.548003 -0.363227,-0.876907 0,0 0,0 0,0 m -7.480267,0 c 0,-0.328904 0.130657,-0.644337 0.363227,-0.876908 0.23257,-0.23257 0.548003,-0.363226 0.876907,-0.363226 0.684907,0 1.240133,0.555227 1.240133,1.240134 0,0.684906 -0.555226,1.240133 -1.240133,1.240134 -0.328904,0 -0.644337,-0.130657 -0.876907,-0.363227 -0.23257,-0.23257 -0.363227,-0.548003 -0.363227,-0.876907 0,0 0,0 0,0 m -7.480267,0 c 0,-0.328904 0.130657,-0.644337 0.363227,-0.876908 0.23257,-0.23257 0.548003,-0.363226 0.876907,-0.363226 0.684907,0 1.240133,0.555227 1.240133,1.240134 0,0.684906 -0.555226,1.240133 -1.240133,1.240134 -0.328904,0 -0.644337,-0.130657 -0.876907,-0.363227 -0.23257,-0.23257 -0.363227,-0.548003 -0.363227,-0.876907 0,0 0,0 0,0 m -7.480267,0 c 0,-0.328904 0.130657,-0.644337 0.363227,-0.876908 0.23257,-0.23257 0.548003,-0.363226 0.876907,-0.363226 0.684907,0 1.240133,0.555227 1.240133,1.240134 0,0.684906 -0.555226,1.240133 -1.240133,1.240134 -0.328904,0 -0.644337,-0.130657 -0.876907,-0.363227 -0.23257,-0.23257 -0.363227,-0.548003 -0.363227,-0.876907 0,0 0,0 0,0 m -7.480267,0 c 0,-0.328904 0.130657,-0.644337 0.363227,-0.876908 0.23257,-0.23257 0.548003,-0.363226 0.876907,-0.363226 0.684907,0 1.240133,0.555227 1.240133,1.240134 0,0.684906 -0.555226,1.240133 -1.240133,1.240134 -0.328904,0 -0.644337,-0.130657 -0.876907,-0.363227 -0.23257,-0.23257 -0.363227,-0.548003 -0.363227,-0.876907 0,0 0,0 0,0 m -7.480267,0 c 0,-0.328904 0.130657,-0.644337 0.363227,-0.876908 0.23257,-0.23257 0.548003,-0.363226 0.876907,-0.363226 0.684907,0 1.240133,0.555227 1.240133,1.240134 0,0.684906 -0.555226,1.240133 -1.240133,1.240134 -0.328904,0 -0.644337,-0.130657 -0.876907,-0.363227 -0.23257,-0.23257 -0.363227,-0.548003 -0.363227,-0.876907 0,0 0,0 0,0 m -7.480267,0 c 0,-0.328904 0.130657,-0.644337 0.363227,-0.876908 0.23257,-0.23257 0.548003,-0.363226 0.876907,-0.363226 0.684907,0 1.240133,0.555227 1.240133,1.240134 0,0.684906 -0.555226,1.240133 -1.240133,1.240134 -0.328904,0 -0.644337,-0.130657 -0.876907,-0.363227 -0.23257,-0.23257 -0.363227,-0.548003 -0.363227,-0.876907 0,0 0,0 0,0 m -7.480267,0 c 0,-0.328904 0.130657,-0.644337 0.363227,-0.876908 0.23257,-0.23257 0.548003,-0.363226 0.876907,-0.363226 0.684907,0 1.240133,0.555227 1.240133,1.240134 0,0.684906 -0.555226,1.240133 -1.240133,1.240134 -0.328904,0 -0.644337,-0.130657 -0.876907,-0.363227 -0.23257,-0.23257 -0.363227,-0.548003 -0.363227,-0.876907 0,0 0,0 0,0"
       style="fill:#ffc300;fill-opacity:1;stroke:none;stroke-width:5.79437542;stroke-linecap:round;stroke-linejoin:miter;stroke-miterlimit:4;stroke-dasharray:none;stroke-opacity:1;paint-order:markers stroke fill"
       inkscape:connector-curvature="0" />
  </g>
  <g
     inkscape:groupmode="layer"
     id="layer2"
     inkscape:label="Layer 2">
    <flowRoot
       xml:space="preserve"
       id="flowRoot28"
       style="font-style:normal;font-weight:normal;font-size:40px;line-height:1.25;font-family:sans-serif;letter-spacing:0px;word-spacing:0px;fill:#000000;fill-opacity:1;stroke:none"
       transform="scale(0.26458333)"><flowRegion
         id="flowRegion30"><rect
           id="rect32"
           width="442.88736"
           height="42.947327"
           x="69.901482"
           y="24.034132" /></flowRegion><flowPara
         id="flowPara34">CompoeCompoasdfasdf</flowPara></flowRoot>  </g>
  <flowRoot
     xml:space="preserve"
     id="flowRoot36"
     style="font-style:normal;font-weight:normal;font-size:40px;line-height:1.25;font-family:sans-serif;letter-spacing:0px;word-spacing:0px;fill:#0000ff;fill-opacity:1;stroke:none"
     transform="scale(0.26458333)"><flowRegion
       id="flowRegion38"
       style="fill:#0000ff"><rect
         id="rect40"
         width="526.06891"
         height="65.080688"
         x="50.618313"
         y="34.880913"
         style="fill:#0000ff" /></flowRegion><flowPara
       id="flowPara42">COMPLETE AUTO DETAIL</flowPara></flowRoot></svg>
